<?xml version="1.0" standalone="no"?>
<!DOCTYPE svg PUBLIC "-//W3C//DTD SVG 20010904//EN"
 "http://www.w3.org/TR/2001/REC-SVG-20010904/DTD/svg10.dtd">
<svg version="1.0" xmlns="http://www.w3.org/2000/svg"
 width="237.000000pt" height="237.000000pt" viewBox="0 0 237.000000 237.000000"
 preserveAspectRatio="xMidYMid meet">
<metadata>
Created by potrace 1.11, written by Peter Selinger 2001-2013
</metadata>
<g transform="translate(0.000000,237.000000) scale(0.100000,-0.100000)"
fill="#000000" stroke="none">
<path d="M830 2170 c-190 -110 -352 -204 -360 -210 -8 -5 -24 -14 -35 -20 -11
-5 -76 -42 -145 -82 l-125 -73 -3 -603 c-1 -365 1 -602 7 -602 5 0 156 -85
336 -190 l326 -189 -2 120 -3 120 -55 33 c-31 18 -76 45 -101 58 -25 14 -104
60 -176 102 l-131 76 1 476 1 476 118 69 c65 38 137 80 160 93 36 20 285 164
387 224 122 71 149 82 175 70 14 -6 25 -16 26 -22 0 -6 0 -395 0 -864 0 -798
1 -851 17 -842 9 5 55 34 102 63 l85 54 1 282 c1 155 5 285 8 289 4 4 107 7
229 7 l222 0 2 260 3 260 -167 95 c-92 52 -190 108 -218 123 -82 47 -78 36
-77 226 l1 170 -47 29 c-55 34 -210 122 -214 122 -2 0 -158 -90 -348 -200z
m740 -614 l125 -72 1 -97 2 -97 -129 0 c-96 0 -129 3 -130 13 -3 71 -3 327 1
326 3 0 61 -33 130 -73z"/>
<path d="M1541 2051 l2 -121 231 -133 231 -133 2 -476 1 -477 -176 -102 c-98
-56 -282 -162 -411 -236 l-234 -135 -26 20 -26 19 0 852 c0 479 -4 851 -9 851
-17 0 -197 -114 -196 -124 0 -3 0 -101 0 -218 l0 -211 -141 141 c-77 78 -143
142 -146 142 -9 0 -173 -101 -173 -107 0 -3 93 -98 206 -211 l205 -205 -207
-208 c-115 -115 -206 -210 -204 -212 10 -9 146 -83 165 -91 16 -6 43 17 157
136 l137 143 1 -265 c1 -146 1 -327 1 -402 l1 -137 129 -75 129 -75 277 161
c153 88 352 203 443 256 91 52 195 113 233 135 l67 39 0 593 0 594 -29 20
c-16 12 -32 21 -36 21 -4 0 -19 8 -33 18 -15 11 -52 33 -82 49 -61 33 -406
233 -458 265 l-33 20 2 -121z"/>
</g>
</svg>
